<svg xmlns="http://www.w3.org/2000/svg" viewBox="0 0 500 140">
  <path fill="#F8154C" d="M483.1 107.8l3.5 10.7h11.3l-9.2 6.7 3.5 10.7-9.1-6.6-9.2 6.6 3.5-10.7-9.1-6.7h11.3z"/>
  <g fill="#FFF">
    <path
      d="M339.3 46.6c-5-4.6-14.2-10.6-28.5-10.6-12.6 0-28.3 6.7-37.8 20.2V38.5h-10.8v-7.4c0-7.4 12.4-6.3 12.4-6.3V2.6c-43.5 0-41.5 28.5-41.5 28.5v7.4h-14V56c-9.4-12.2-24.1-20-40.7-20-16.4 0-31 7.7-40.4 19.6C128.6 43.7 114 36 97.6 36c-17.4 0-32.7 8.6-42 21.8V38.5H42.9V5.3H13.7v33.2h-12v22.6h12.1v72.6h29.1V61.1h10.6c-4.6 7.7-7.3 16.8-7.3 26.5 0 28.4 23 51.5 51.5 51.5 16.4 0 31-7.7 40.4-19.6 9.4 11.9 24 19.6 40.4 19.6 28.4 0 51.5-23 51.5-51.5 0-9.7-2.7-18.7-7.3-26.5h10.6v72.6h29.1V61.1h7.8c-3.4 6.5-5.5 14.3-5.5 23.4 0 32.5 19.4 52.7 46.8 52.7 12.6 0 21.7-5.7 27.9-11.9v8.5h29.1V38.5h-29.1l-.1 8.1zM97.6 110.5c-13.1 0-23.8-10.7-23.8-23.8s10.7-23.8 23.8-23.8 23.8 10.7 23.8 23.8c0 13.2-10.6 23.8-23.8 23.8zm80.8 0c-13.1 0-23.8-10.7-23.8-23.8s10.7-23.8 23.8-23.8 23.8 10.7 23.8 23.8c0 13.2-10.6 23.8-23.8 23.8zm137.2 0c-13.1 0-23.8-10.7-23.8-23.8s10.7-23.8 23.8-23.8c13.1 0 23.8 10.7 23.8 23.8 0 13.2-10.6 23.8-23.8 23.8zM428.1 36.1c-13.1 0-22 5.1-27.2 9.5V5.3h-29.1v128.4H401v-7.2c6.1 5.7 14.9 10.7 26.6 10.7 27.3 0 46.8-20.1 46.8-52.7s-26.8-48.4-46.3-48.4zm-3.3 74.4c-13.1 0-23.8-10.7-23.8-23.8s10.7-23.8 23.8-23.8c13.1 0 23.8 10.7 23.8 23.8 0 13.2-10.7 23.8-23.8 23.8z"/>
  </g>
</svg>
